<svg width="14" height="14" viewBox="0 0 14 14" fill="none" xmlns="http://www.w3.org/2000/svg">
                            <path
                                d="M13.4565 6.2807L7.6238 0.965995C7.36779 0.732681 6.98172 0.732706 6.72581 0.965969L0.893114 6.28072C0.688034 6.4676 0.620292 6.75553 0.720483 7.01423C0.8207 7.27294 1.0647 7.44008 1.34215 7.44008H2.27373V12.765C2.27373 12.9761 2.44491 13.1473 2.65603 13.1473H5.85306C6.06418 13.1473 6.23537 12.9762 6.23537 12.765V9.53189H8.11432V12.765C8.11432 12.9762 8.2855 13.1474 8.49663 13.1474H11.6935C11.9046 13.1474 12.0758 12.9762 12.0758 12.765V7.44008H13.0076C13.285 7.44008 13.529 7.27291 13.6292 7.01423C13.7293 6.7555 13.6616 6.4676 13.4565 6.2807Z"
                                fill="#CDCDCD" />
                        </svg>