<svg width="25" height="25" viewBox="0 0 25 25" fill="none" xmlns="http://www.w3.org/2000/svg">
<rect class="color" x="0.732483" y="0.199707" width="23.8609" height="23.8515" rx="8" fill="#BD00FF"/>
<g clip-path="url(#clip0)">
<path d="M15.979 4.71045H9.34687C7.18838 4.71045 5.43237 6.46645 5.43237 8.62494V15.2572C5.43237 17.4156 7.18838 19.1716 9.34687 19.1716H15.9791C18.1375 19.1716 19.8935 17.4156 19.8935 15.2572V8.62494C19.8935 6.46645 18.1375 4.71045 15.979 4.71045V4.71045ZM12.6629 15.8951C10.4826 15.8951 8.70883 14.1213 8.70883 11.941C8.70883 9.76068 10.4826 7.98691 12.6629 7.98691C14.8433 7.98691 16.617 9.76068 16.617 11.941C16.617 14.1213 14.8433 15.8951 12.6629 15.8951ZM16.7116 8.91941C16.0673 8.91941 15.5432 8.39535 15.5432 7.75102C15.5432 7.1067 16.0673 6.58252 16.7116 6.58252C17.3559 6.58252 17.8801 7.1067 17.8801 7.75102C17.8801 8.39535 17.3559 8.91941 16.7116 8.91941Z" fill="#333"/>
<path d="M12.6629 8.83447C10.9502 8.83447 9.5566 10.2279 9.5566 11.9408C9.5566 13.6536 10.9502 15.0471 12.6629 15.0471C14.3758 15.0471 15.7693 13.6536 15.7693 11.9408C15.7693 10.2279 14.3758 8.83447 12.6629 8.83447Z" fill="#333"/>
<path d="M16.7116 7.43066C16.5348 7.43066 16.391 7.57453 16.391 7.75128C16.391 7.92803 16.5348 8.0719 16.7116 8.0719C16.8884 8.0719 17.0323 7.92814 17.0323 7.75128C17.0323 7.57442 16.8884 7.43066 16.7116 7.43066Z" fill="#333"/>
</g>
<defs>
<clipPath id="clip0">
<rect width="14.4611" height="14.4611" fill="#333" transform="translate(5.43237 4.71045)"/>
</clipPath>
</defs>
</svg>
