<svg width="16" height="16" viewBox="0 0 16 16" fill="none" xmlns="http://www.w3.org/2000/svg">
                            
                            <path d="M10.7859 8.04623L15.8428 11.2431V4.71436L10.7859 8.04623Z" fill="#CDCDCD"/>
                            <path d="M0.842773 4.71436V11.2431L5.89965 8.04623L0.842773 4.71436Z" fill="#CDCDCD"/>
                            <path d="M14.9053 2.81299H1.78029C1.31247 2.81299 0.941223 3.16174 0.870911 3.6108L8.34278 8.53361L15.8147 3.6108C15.7443 3.16174 15.3731 2.81299 14.9053 2.81299Z" fill="#CDCDCD"/>
                            <path d="M9.92715 8.61227L8.60059 9.48602C8.52184 9.53758 8.43278 9.56289 8.34278 9.56289C8.25278 9.56289 8.16371 9.53758 8.08496 9.48602L6.7584 8.61133L0.872772 12.3341C0.94496 12.7795 1.31433 13.1254 1.78027 13.1254H14.9053C15.3712 13.1254 15.7406 12.7795 15.8128 12.3341L9.92715 8.61227Z" fill="#CDCDCD"/>
                            
                            <defs>
                            <clipPath id="clip0">
                            <rect width="15" height="15" fill="white" transform="translate(0.842773 0.469238)"/>
                            </clipPath>
                            </defs>
                            </svg>