<svg width="191" height="100" viewBox="0 0 191 100" fill="none" xmlns="http://www.w3.org/2000/svg">
<path d="M115.377 75.6578L115.38 75.663C115.379 75.6613 115.378 75.6595 115.377 75.6578ZM115.377 75.6578C115.375 75.6548 115.374 75.6518 115.372 75.6488L115.377 75.6578ZM4.72127 3.79412L2.80909 4.70898L4.30799 6.20789L94.1659 96.0658L95.2057 97.1056L96.266 96.0867L116.249 76.8823L116.261 76.876L116.406 76.7312L116.406 76.7309L116.478 76.6625L116.488 76.6488L186.932 6.20948L188.43 4.71091L186.519 3.79582C184.043 2.61048 181.279 1.87969 178.313 1.87969H12.9244C9.95866 1.87969 7.19702 2.60963 4.72127 3.79412ZM116.539 76.5848C116.539 76.5848 116.539 76.5849 116.539 76.5849L115.407 75.682C116.478 76.5357 116.536 76.5823 116.539 76.5848Z" stroke="#BD00FF" stroke-width="3"/>
</svg>
