<svg width="12" height="13" viewBox="0 0 12 13" fill="none"
                                xmlns="http://www.w3.org/2000/svg">
                                <path
                                    d="M11.5434 9.77603L10.0084 8.10139C9.46012 7.50331 8.5281 7.74257 8.30881 8.52005C8.14433 9.05835 7.59609 9.35739 7.10267 9.23775C6.00618 8.93871 4.52592 7.38369 4.2518 6.12771C4.08733 5.58942 4.41627 4.99133 4.90969 4.81193C5.62241 4.5727 5.84171 3.55595 5.29347 2.95787L3.75838 1.28323C3.31979 0.864574 2.66189 0.864574 2.27812 1.28323L1.23646 2.41959C0.194797 3.61576 1.34611 6.78561 3.92286 9.5966C6.4996 12.4076 9.40529 13.7234 10.5018 12.5272L11.5434 11.3909C11.9272 10.9124 11.9272 10.1947 11.5434 9.77603Z"
                                    fill="#CDCDCD" />
                            </svg>