<svg width="472" height="241" viewBox="0 0 472 241" fill="none" xmlns="http://www.w3.org/2000/svg">
<path d="M5.07381 6.15689L3.16163 7.07176L4.66053 8.57066L233.94 237.85L234.979 238.889L236.04 237.871L287.279 188.627L287.289 188.622L287.413 188.498L287.429 188.484L287.499 188.416L287.512 188.399L467.347 8.57469L468.845 7.07612L466.934 6.16103C460.889 3.26757 454.18 1.5 447 1.5H25.0002C17.8223 1.5 11.1172 3.26551 5.07381 6.15689ZM287.56 188.339C287.56 188.339 287.559 188.339 287.559 188.34L286.495 187.486C287.48 188.276 287.554 188.335 287.56 188.339Z" stroke="#BD00FF" stroke-width="3"/>
</svg>
