<svg width="25" height="25" viewBox="0 0 25 25" fill="none"
                        xmlns="http://www.w3.org/2000/svg">
                        <path class="color"
                            d="M18.5884 0.0512695H6.60742C3.31218 0.0512695 0.607422 2.75603 0.607422 6.07032V18.0513C0.607422 21.3465 3.31218 24.0513 6.60742 24.0513H18.5884C21.9027 24.0513 24.6074 21.3465 24.6074 18.0322V6.07032C24.6074 2.75603 21.9027 0.0512695 18.5884 0.0512695ZM11.9598 4.9846C11.9979 4.39413 12.5503 4.60365 12.836 4.56556C16.4169 4.67984 19.5027 7.89889 19.4646 11.3656C19.4646 11.7084 19.5789 12.2037 19.0646 12.2037C18.5693 12.2037 18.7027 11.6894 18.6455 11.3465C18.1693 7.67032 16.455 5.93698 12.7217 5.36556C12.4169 5.32746 11.9408 5.3846 11.9598 4.9846ZM17.3122 11.5179C16.7408 11.5941 16.855 11.0989 16.7979 10.7751C16.4169 8.52746 15.6169 7.70841 13.3122 7.21317C12.9693 7.13698 12.436 7.19413 12.5312 6.67984C12.6074 6.1846 13.0836 6.35603 13.4455 6.39413C15.7503 6.66079 17.636 8.6227 17.6169 10.7751C17.5789 11.0037 17.7312 11.4417 17.3122 11.5179ZM15.8836 10.337C15.8836 10.6417 15.8455 10.9275 15.5027 10.9656C15.255 11.0037 15.1027 10.7941 15.0646 10.5465C14.9693 9.63222 14.4741 9.07984 13.5217 8.92746C13.236 8.88936 12.9693 8.79413 13.1027 8.41317C13.1979 8.16556 13.4265 8.12746 13.6741 8.12746C14.7027 8.10841 15.8836 9.30841 15.8836 10.337ZM19.5027 17.3656C19.1027 18.4513 17.7503 19.556 16.5884 19.537C16.4169 19.4989 16.0931 19.4417 15.8074 19.3275C10.7027 17.1751 6.98837 13.6322 4.89314 8.56556C4.18837 6.87032 4.93123 5.4227 6.70266 4.85127C7.02647 4.73698 7.33123 4.73698 7.65504 4.85127C8.41695 5.11794 10.3408 7.72746 10.3789 8.48936C10.4169 9.07984 9.9979 9.40365 9.5979 9.67032C8.81695 10.1846 8.81695 10.8322 9.1598 11.5751C9.90266 13.2132 11.1789 14.356 12.836 15.0798C13.4265 15.3465 14.0169 15.3275 14.4169 14.7179C15.1408 13.6322 16.036 13.6894 17.0074 14.356C17.5027 14.6989 17.9979 15.0227 18.455 15.3846C19.0836 15.8989 19.8836 16.3179 19.5027 17.3656Z"
                            fill="#CDCDCD" />
                            <style>.color:hover {fill: #BD00FF; transition: all 3.s; cursor: pointer;}</style>
                    </svg>