<svg width="25" height="25" viewBox="0 0 25 25" fill="none"
                            xmlns="http://www.w3.org/2000/svg">
                            <rect class="color" x="0.483154" y="0.199707" width="23.8609" height="23.8515" rx="8" fill="#CDCDCD" />
                            <g clip-path="url(#clip0)">
                                <path
                                    d="M12.4154 4.71045H12.4118C8.42505 4.71045 5.18304 7.95336 5.18304 11.941C5.18304 13.5227 5.6928 14.9887 6.55956 16.179L5.65845 18.8652L8.43771 17.9767C9.58104 18.7341 10.9449 19.1716 12.4154 19.1716C16.4022 19.1716 19.6442 15.9278 19.6442 11.941C19.6442 7.95427 16.4022 4.71045 12.4154 4.71045ZM16.6227 14.9209C16.4483 15.4135 15.7559 15.822 15.2037 15.9413C14.8259 16.0218 14.3324 16.0859 12.6712 15.3972C10.5463 14.5169 9.17794 12.3577 9.07129 12.2176C8.96915 12.0775 8.21265 11.0743 8.21265 10.0367C8.21265 8.99908 8.73958 8.49385 8.95198 8.27693C9.12642 8.09888 9.41474 8.01753 9.69131 8.01753C9.78079 8.01753 9.86123 8.02205 9.93353 8.02567C10.1459 8.03471 10.2526 8.04736 10.3927 8.38268C10.5671 8.80295 10.9919 9.84054 11.0425 9.94719C11.094 10.0538 11.1456 10.1985 11.0733 10.3385C11.0055 10.4832 10.9458 10.5473 10.8392 10.6702C10.7325 10.7932 10.6313 10.8872 10.5246 11.0191C10.427 11.1339 10.3168 11.2568 10.4397 11.4692C10.5626 11.6771 10.9874 12.3703 11.6128 12.9271C12.4199 13.6456 13.0743 13.8752 13.3084 13.9728C13.4828 14.0451 13.6907 14.0279 13.8182 13.8924C13.9799 13.7179 14.1797 13.4287 14.383 13.144C14.5277 12.9397 14.7102 12.9144 14.9018 12.9867C15.0971 13.0545 16.1301 13.5652 16.3425 13.6709C16.5549 13.7776 16.695 13.8282 16.7465 13.9177C16.7972 14.0072 16.7972 14.4274 16.6227 14.9209Z"
                                    fill="#222222" />
                            </g>
                            <defs>
                                <clipPath id="clip0">
                                    <rect width="14.4611" height="14.4611" fill="white"
                                        transform="translate(5.18304 4.71045)" />
                                </clipPath>
                            </defs> <style>.color:hover {fill: #BD00FF; transition: all 3.s; cursor: pointer;}</style>
                        </svg> 